<?xml version="1.0" encoding="utf-8"?>
<!DOCTYPE svg PUBLIC "-//W3C//DTD SVG 1.1//EN" "http://www.w3.org/Graphics/SVG/1.1/DTD/svg11.dtd">
<svg version="1.1" xmlns="http://www.w3.org/2000/svg" width="230px" height="409px" viewBox="0 0 230 409" preserveAspectRatio="xMidYMid meet">
 <g fill="#ffffff">
  <path d="M0 204.50 l0 -204.50 115 0 115 0 0 204.50 0 204.50 -115 0 -115 0 0 -204.50z m124.35 182.65 c22.65 -29.25 30.25 -42.20 31 -52.90 l0.25 -4 -4.65 4.55 c-4.55 4.35 -13.75 13 -27.10 25.40 -8.80 8.20 -11.90 13 -13.55 21 -0.60 2.80 -0.65 4.35 -0.25 6.80 0.50 3.15 2.30 8.05 3.85 10.40 l0.80 1.25 1.30 -1.70 c0.70 -0.90 4.45 -5.80 8.35 -10.80z m-26.80 -23.85 c1.65 -4.50 4.15 -8.40 7.35 -11.65 2.30 -2.35 30.80 -28.40 48.80 -44.60 15.55 -14.05 34.05 -31.45 35.30 -33.30 3.30 -4.80 5.50 -11.80 5.50 -17.45 0 -3.55 -1.65 -9.70 -3.50 -13.25 -1.35 -2.55 -7.50 -10.60 -41.90 -55.05 -18.50 -23.90 -31.20 -40.25 -38.30 -49.25 -4.10 -5.20 -8.35 -10.80 -9.35 -12.40 -2.55 -3.90 -4.05 -8.70 -4.40 -13.85 l-0.30 -4.25 -1.55 2.25 c-6.95 10 -8.10 20.45 -3.45 30.25 1.90 3.95 2.20 4.40 19.75 27 7.05 9.10 16.95 21.90 22.05 28.50 5.10 6.60 12.85 16.60 17.20 22.25 27.85 35.90 25.35 32.25 25.65 37.40 0.30 5.95 -0.60 7.20 -12.45 18 -5.35 4.85 -20.65 18.85 -33.95 31.10 -13.25 12.25 -26.30 24.20 -29 26.60 -2.65 2.40 -5.75 5.70 -6.95 7.35 -7.25 10.40 -7.50 21.10 -0.65 32.05 l2.35 3.75 0.35 -4.25 c0.15 -2.40 0.80 -5.55 1.45 -7.20z m-20.10 -32.50 c2.95 -5.90 5.05 -8.20 17.80 -19.75 29.05 -26.25 50.65 -46.40 56.55 -52.85 l4.05 -4.40 -5.55 -7.05 c-5.05 -6.35 -10.60 -13.50 -35 -45.15 -4.40 -5.70 -13.75 -17.80 -20.80 -26.85 -7.10 -9.10 -13.55 -17.65 -14.40 -19 -2.25 -3.70 -3.60 -8.35 -4 -13.60 l-0.35 -4.65 -2.15 3.15 c-2.70 4 -4.95 9.75 -5.65 14.55 -0.45 3.10 -0.40 4.40 0.30 7.90 1.20 6.15 3.85 11.10 10.40 19.40 3.10 4 11.10 14.35 17.75 22.95 15.10 19.60 14.65 17.95 5.95 22.45 -3.55 1.80 -6.75 3.10 -7.60 3.10 -1.35 0 -2.15 -0.80 -7.50 -7.85 -3.30 -4.30 -10.65 -13.90 -16.40 -21.30 -5.70 -7.40 -10.95 -14.45 -11.70 -15.70 -2.45 -4.20 -3.70 -8.55 -4 -13.80 l-0.30 -4.90 -1.75 2.40 c-3.65 5.05 -6.60 13.45 -6.60 18.75 0.05 7.30 3.20 14.20 11.10 24.45 24 30.95 22.30 27.85 17.30 31.80 -10.05 7.90 -18.85 13.20 -25.10 15.10 -3.85 1.20 -12.10 1.45 -15.30 0.50 -2.75 -0.85 -6.40 -3.80 -8.55 -6.95 -3.75 -5.45 -5.45 -12.15 -5.45 -21.80 0 -7.80 0.85 -13 3.35 -20.15 0.60 -1.70 -0.85 0.30 -2.85 3.95 -6.95 12.60 -10.15 24.85 -8.95 34.60 2.15 17.95 14 30.85 28.45 31.05 9.65 0.15 19.45 -4.60 35.70 -17.35 21.55 -16.85 37.85 -27.30 42.60 -27.30 1.95 0 2.05 0.10 7.30 6.90 4.85 6.15 5.40 7.05 5.35 8.85 -0.05 2.20 3.05 -0.80 -42.85 41.15 -14.35 13.10 -15.70 14.55 -17.95 18.90 -5.45 10.45 -5.05 19.40 1.25 29.95 l1.80 3 0.85 -5.20 c0.65 -3.95 1.35 -6.15 2.90 -9.25z m14.05 -54.65 c2.05 -1.20 3.65 -4.25 3.05 -5.75 -0.70 -1.80 -3.40 -3.90 -5.05 -3.90 -1.80 0 -4.75 2.45 -5.20 4.30 -0.60 2.25 2.65 6.10 5.10 6.20 0.40 0 1.35 -0.35 2.10 -0.85z m126.25 -12.25 c4.60 -9.55 6.60 -20.35 5.30 -28.20 -0.95 -5.65 -3.50 -12.95 -6 -17.15 -2.25 -3.70 -7.60 -10.75 -35.55 -46.80 -7.05 -9.05 -17.85 -23 -24 -31 -10.20 -13.25 -27.05 -35.05 -34.80 -45 -1.70 -2.20 -4.30 -5.75 -5.85 -7.85 l-2.75 -3.85 -1.55 3.45 c-0.90 1.90 -1.95 5.20 -2.40 7.30 -0.70 3.50 -0.70 4.25 0 7.80 1.20 6 4.05 11.30 10.50 19.45 8.80 11.25 44.25 56.85 49.90 64.25 1.50 1.95 6.90 8.95 12 15.50 30 38.60 30.55 39.35 32.45 47.25 1.15 4.90 1.30 12 0.30 17.10 -0.35 1.85 -0.55 3.35 -0.45 3.35 0.10 0 1.40 -2.55 2.90 -5.60z m-168.10 -23.90 c0.95 -0.85 1.85 -2.05 1.95 -2.75 0.55 -2.70 -3.30 -6.20 -6 -5.50 -1.85 0.45 -4.10 3.10 -4.10 4.80 0 0.85 0.60 2.10 1.55 3.20 2.05 2.30 4.20 2.40 6.60 0.25z m64.25 -166.80 c-8.80 -1.15 -14.05 -3.75 -19.85 -9.95 -3.30 -3.55 -6.45 -9.40 -7.60 -14.25 -1 -4.10 -0.90 -14.05 0.25 -17.75 1.35 -4.50 4.20 -9.60 7.30 -12.95 2 -2.15 2.30 -2.70 1.20 -1.90 -4.75 3.30 -9.60 10.55 -11.60 17.35 -4.05 13.80 2.90 28.85 16.90 36.60 4.85 2.70 8.15 3.50 14.75 3.50 l4 0.05 -5.35 -0.70z m-7.40 -21.70 c-2.85 -4.05 -3.95 -12.65 -2.25 -18.30 0.60 -2.15 0.60 -2.35 -0.05 -1.45 -0.95 1.30 -2.70 6.95 -2.70 8.80 0 3.30 4.15 12.45 5.65 12.45 0.25 0 -0.05 -0.70 -0.65 -1.50z"/>
 </g>
 <g fill="#0c4c56">
  <path d="M112.75 400.65 c-4.15 -7.40 -5.40 -13.65 -4.10 -20.30 1.70 -8.50 4.70 -13.30 13.70 -21.65 15.45 -14.35 22.80 -21.25 28.25 -26.65 4.70 -4.60 5.90 -5.55 6.20 -4.90 0.15 0.50 0.20 3.50 0.05 6.75 -0.55 13.10 -5.70 21.80 -36.80 62.35 -2.75 3.55 -5.20 6.55 -5.45 6.65 -0.30 0.10 -1.10 -0.95 -1.85 -2.25z"/>
  <path d="M95.40 377.65 c-6 -7.95 -8.50 -14.25 -8.60 -21.65 -0.10 -10.35 3.45 -17.55 12.70 -25.90 2.70 -2.40 15.75 -14.35 29 -26.60 13.30 -12.25 28.60 -26.25 33.95 -31.10 11.25 -10.25 12.85 -12.35 12.35 -16.60 -0.40 -3.55 1.20 -1.30 -25.55 -35.80 -4.35 -5.65 -12.10 -15.65 -17.20 -22.25 -5.10 -6.60 -15 -19.40 -22.05 -28.50 -17.55 -22.60 -17.85 -23.05 -19.75 -27 -5.25 -11 -3.60 -23.95 4.40 -34.50 4.60 -6.05 4.15 -6.15 4.10 1.10 0 10.40 0.95 12.40 13.55 28.40 7.10 9 19.80 25.35 38.30 49.25 34.40 44.45 40.55 52.50 41.90 55.05 5.30 10 4.45 24.30 -2 33.70 -1.25 1.85 -19.75 19.25 -35.30 33.30 -18 16.20 -46.50 42.25 -48.80 44.60 -3.30 3.30 -5.80 7.30 -7.50 11.90 -0.95 2.70 -1.15 4.15 -1.15 9.05 0 3.25 -0.10 5.90 -0.25 5.90 -0.15 0 -1.10 -1.05 -2.10 -2.35z"/>
  <path d="M73 347.50 c-5.40 -7.30 -7.70 -13.70 -7.70 -21.25 0.05 -6.10 1.05 -10.05 3.85 -15.45 2.25 -4.35 3.65 -5.80 17.95 -18.90 34.60 -31.60 42.85 -39.20 42.85 -39.65 0.05 -0.60 -10.30 -13.95 -11 -14.15 -0.80 -0.30 -10.70 5.20 -17.80 9.95 -7.50 5 -12.60 8.75 -23.45 17.25 -17.05 13.40 -25.90 17.50 -37.20 17.40 -4.25 -0.05 -5.95 -0.30 -8.80 -1.30 -16.35 -5.75 -25.10 -26.15 -20.20 -47.15 2.10 -9.05 6.35 -18.30 13.30 -28.90 4.05 -6.20 4.95 -7.30 5.80 -7.35 0.20 0 -0.25 1.50 -0.95 3.35 -2.75 6.95 -6.20 17.75 -6.90 21.45 -1.45 7.50 -0.80 16.70 1.75 23.60 2.15 5.80 7.10 11.20 11.50 12.55 5.25 1.55 12.45 0.20 20 -3.75 4.05 -2.15 15.50 -10.10 18.85 -13.05 l1.60 -1.40 -8 -10.25 c-19.70 -25.35 -21.20 -27.60 -22.70 -34.75 -2.20 -10.50 0.55 -20.85 8 -30.10 1.85 -2.30 3.50 -4.15 3.70 -4.15 0.25 0 0.10 1.20 -0.30 2.60 -0.95 3.55 -0.55 10.65 0.85 14.75 1.60 4.60 3.50 7.45 14.35 21.55 5.50 7.05 12.70 16.45 16.10 20.85 3.40 4.40 6.30 8 6.50 8 0.15 0 2.95 -1.35 6.20 -3 3.50 -1.80 5.75 -3.25 5.60 -3.60 -0.20 -0.60 -17.95 -23.70 -29.65 -38.65 -6.50 -8.35 -9.15 -13.25 -10.40 -19.50 -1.50 -7.45 0.10 -16.50 4 -23.20 1.55 -2.65 7.30 -10 7.60 -9.70 0.10 0.15 -0.05 1.55 -0.35 3.20 -1.15 6.05 0.35 14.05 3.65 19.45 0.85 1.35 7.30 9.90 14.40 19 7.05 9.05 16.40 21.15 20.80 26.85 24.90 32.25 29.95 38.80 35.20 45.40 3.15 3.95 5.95 7.50 6.15 7.85 1 1.65 -19.15 21.05 -61.40 59.20 -6.30 5.70 -12.45 11.60 -13.65 13.05 -5.15 6.35 -8 15.20 -7.15 22.10 0.20 1.85 0.20 3.30 0 3.30 -0.20 0 -1.50 -1.55 -2.95 -3.50z"/>
  <path d="M208.50 281.50 c0 -0.40 0.95 -3.05 2.05 -5.95 3.90 -9.90 4.75 -17.40 2.95 -25 -1.90 -7.90 -2.45 -8.65 -32.45 -47.25 -5.10 -6.55 -10.50 -13.55 -12 -15.50 -5.65 -7.40 -41.10 -53 -49.90 -64.25 -9.85 -12.50 -12.55 -20.50 -10.40 -30.80 0.70 -3.30 3.30 -9.40 4.85 -11.40 0.65 -0.85 0.85 -0.75 2.65 2 2.15 3.25 6.85 9.45 21.50 28.40 5.55 7.15 15.10 19.55 21.25 27.50 6.15 8 16.95 21.95 24 31 37.35 48.20 36.85 47.45 39.45 55.60 2.20 7.10 2.75 10.95 2.40 17.90 -0.50 10 -3.60 19.35 -9.60 29.05 -2.85 4.55 -6.75 9.60 -6.75 8.70z"/>
  <path d="M85.90 277.75 c-3.65 -2 -4.50 -7.75 -1.60 -10.80 5.70 -5.95 15.25 0.75 11.20 7.90 -0.60 1.10 -1.75 2.35 -2.50 2.80 -1.70 1.05 -5.30 1.05 -7.10 0.10z"/>
 </g>
 <g fill="#b38837">
  <path d="M44.15 243.15 c-0.60 -0.10 -1.80 -1 -2.65 -1.95 -1.30 -1.50 -1.50 -2.15 -1.50 -4.50 0 -4.40 2.25 -6.70 6.60 -6.70 4.35 0 7.30 3.25 6.70 7.45 -0.60 4.30 -4.35 6.65 -9.15 5.70z"/>
  <path d="M108.25 75.15 c-6.75 -0.90 -15.85 -6.60 -20.60 -12.90 -4.65 -6.15 -6.85 -12.80 -6.80 -20.75 0.10 -18.75 14.90 -33.50 33.50 -33.50 4.05 0 11.70 1.40 12.60 2.30 0.65 0.65 -0.80 0.80 -3 0.30 -9.55 -2.20 -21.10 1.45 -28.15 8.90 -5.50 5.90 -8.45 13.05 -8.50 20.75 -0.05 5.55 0.70 8.80 3.30 14.25 1.65 3.45 2.80 5 6.10 8.25 6.55 6.45 12.40 8.90 21.30 8.90 9 0.05 15.50 -2.75 22.65 -9.65 2.45 -2.35 4.55 -4.35 4.70 -4.50 0.75 -0.60 -1.80 3.35 -3.75 5.80 -6.20 7.90 -15.85 12.30 -26.85 12.10 -2.75 0 -5.65 -0.15 -6.50 -0.25z"/>
  <path d="M114.70 59.80 c-9.05 -2.30 -15.30 -11.15 -14.55 -20.70 0.70 -9.15 6.90 -16.25 16.15 -18.40 3.75 -0.85 6.30 -0.70 10.60 0.65 3.55 1.10 2.70 1.95 -1.05 1.15 -7.25 -1.65 -15.70 2.80 -19.25 10 -1.20 2.40 -1.35 3.35 -1.35 7.50 0 4.25 0.15 5.10 1.45 7.70 1.90 3.90 4.90 6.80 8.90 8.75 4.30 2.05 9.35 2.15 14.65 0.30 l3.50 -1.20 -1.70 1.45 c-3.30 2.80 -11.90 4.20 -17.35 2.80z"/>
 </g>
</svg>